<?xml version="1.0" encoding="utf-8"?>
<!-- Generator: Adobe Illustrator 19.2.1, SVG Export Plug-In . SVG Version: 6.00 Build 0)  -->
<svg version="1.1" id="Layer_1" xmlns="http://www.w3.org/2000/svg" xmlns:xlink="http://www.w3.org/1999/xlink" x="0px" y="0px"
	 viewBox="0 0 258.7 128.8" style="enable-background:new 0 0 258.7 128.8;" xml:space="preserve">
<style type="text/css">
	.st0{fill:none;}
	.st1{fill:#FCDC56;}
	.st2{fill:#9FCCD3;}
</style>
<g>
	<path class="st0" d="M111.4,86.9c-1.6,2-4.6,10.3-4.6,10.3s8.6-10,8.6-12.2C115.5,82.7,113,84.8,111.4,86.9z"/>
	<path class="st0" d="M101.2,54.1c-0.3,0.6,0,1.2,0.8,0.7c4.6-2.9,4.6-5,4.3-6.7C105.3,49.1,101.5,53.5,101.2,54.1z"/>
	<path class="st0" d="M57.8,27.5c0.5-4.3-3.7-3.2-10.9-2.1c0.2,2.5,0.6,12.2,0.6,12.2S57.3,31.5,57.8,27.5z"/>
	<path class="st0" d="M193,64.6c0,0,3.2-11.1,3.6-11.7c0.4-0.6,15-3.2,15-3.2s-14.8-3.5-15.4-4.2c-0.6-0.6-3.2-10.8-3.2-10.8
		s-2.3,9.8-3.2,10.7c-0.9,0.8-14.3,4.3-14.3,4.3s13.6,3.1,14.2,3.9C190.5,54.3,193,64.6,193,64.6z"/>
	<path class="st0" d="M50.8,87.4c-1.6,2-4.6,10.3-4.6,10.3s8.6-10,8.6-12.2C54.9,83.2,52.4,85.3,50.8,87.4z"/>
	<path class="st0" d="M233.5,8.3c0,0-2.4,11.4-3.1,12.1s-16.9,5.2-16.9,5.2s16.3,2.3,16.8,3c0.5,0.6,4.5,12.8,4.5,12.8
		s2.4-11.6,3.1-12.5s15.6-4.9,15.6-4.9s-15-3.3-16-4.1C236.4,19.1,233.5,8.3,233.5,8.3z"/>
	<path class="st0" d="M94.1,80.1c0,0.4,0.3,4.3,0.9,4.1s0.7-4.4,0.4-4.7C95.2,79.1,94.1,79.6,94.1,80.1z"/>
	<path class="st0" d="M219.5,96.4c-0.2,0.7-0.4,1.6-0.7,2.5c-0.2,1.3-0.3,2.6,0,3.7c1.4,5.2,8.6,4.8,8.6,4.8l1-18.3
		C224.6,88.9,221.1,92.5,219.5,96.4z"/>
	<path class="st1" d="M170.9,50.1c1.4,0.6,15.5,4.1,16.4,5s3.8,15.8,4.5,16.4c0.6,0.6,2.1,1.7,3,0.9c0.9-0.7,3.5-17.3,4.2-18.1
		s16.3-4,16.5-4.2c0.3-0.2,1-0.8,0.8-1.3s-16.1-4.4-17-5.4c-0.9-0.9-4.2-16.3-4.6-16.8c-0.3-0.5-2.6,0-2.9,0.9
		c-0.2,0.9-3.2,14.6-4.1,15.6c-0.8,1-13,4.4-14.8,5C171,48.7,169.5,49.4,170.9,50.1z M190,45.3c0.9-0.8,3.2-10.7,3.2-10.7
		s2.6,10.2,3.2,10.8c0.6,0.6,15.4,4.2,15.4,4.2s-14.6,2.6-15,3.2c-0.4,0.6-3.6,11.7-3.6,11.7s-2.6-10.3-3.2-11.1
		c-0.6-0.8-14.2-3.9-14.2-3.9S189.1,46.1,190,45.3z"/>
	<path class="st1" d="M255.9,22.6c-2-0.5-15.3-3.8-16.3-4.8s-4.7-15.8-5-16.7c-0.3-1-2.8-1.4-3.1-0.9c-0.3,0.6-3.4,17.3-4.3,18.4
		s-18,5.9-18.2,6.5c-0.2,0.5,0.6,1.2,0.9,1.4c0.3,0.2,17.3,3.1,18.1,3.9c0.8,0.8,4.1,16.1,5,17s2.9,1.8,3.5,1.1
		c0.7-0.7,3.2-16.8,4.1-17.7c0.9-1,16.1-5.3,17.6-6C259.6,23.8,257.9,23.2,255.9,22.6z M237.9,29.1c-0.7,0.9-3.1,12.5-3.1,12.5
		s-4-12.2-4.5-12.8c-0.5-0.6-16.8-3-16.8-3s16.2-4.5,16.9-5.2s3.1-12.1,3.1-12.1s2.9,10.8,3.9,11.7c1,0.9,16,4.1,16,4.1
		S238.5,28.2,237.9,29.1z"/>
	<path class="st2" d="M59.3,38.7c0.1,0.1-0.6,0-0.8,0.1s1,1.9,1.5,2.7s2.1,3.2,1.6,6.4c-0.6,4.4-2.9,8.4-4.6,8.6
		c-2.3,0.3-1.9-5.7-1.1-9.3s2.8-4.7,2.6-5.9c-0.2-1.1-0.8-2.9-1.8-3.3c-0.9-0.4-3.9,4.1-4.7,5.6c-0.8,1.5-2.8,6.2-1.2,10.4
		c1.6,4.2,3.9,4.5,6.3,3.7c2.3-0.9,4.5-3,5.4-7.2S61.9,43,61.9,43s1.5,0.8,2.7,1c-0.3,4.1-0.3,9.3,0.4,11.5c2,6.4,7.2-0.9,10.2-6.3
		c-0.3,5-0.5,9.4-0.2,9.9c0.7,1,4.7-1.4,4.8-2.2c0-0.8-0.6-10.3,0.4-13.4c0.4-1.2,2.8-6.8,5.2-5.9c2.7,1.1-5.2,22.5,2.2,19.1
		c2.1-1,3.7-3.1,4.9-5.5c-0.5,9.3-1,18.5-0.9,19.5c0.2,2.1,6.8,0.8,6.9-2.8s-1-37.3-1-37.3s12.1-0.1,12.8-0.5s1.9-2.9,1.6-3.2
		c-0.3-0.3-14.7-0.8-14.7-0.8s-0.1-2.3-0.5-3c-0.5-1-2.2-1.2-2-0.9c-0.1,0.1-0.3,3.3-0.5,3.9c-1.6,0-16.2-0.7-16.6-0.3
		c-0.5,0.3,2.3,4.7,2.9,4.9c0,0.1,13.3,0,13.3,0s-0.6,8.9-1.1,18.4c-1.2,2.5-2.4,4.7-3.4,4.4c-2.3-0.6,3-14.7-1.1-16.6
		c-4.4-2-6.6,1.1-8.3,3.5c-0.1-2.5-1.1-7-3.5-7c0,0-0.5,6-0.9,12.3c-2.5,3.5-7.2,9.9-7.6,7.8c-0.6-2.7,1.6-11.8,0.7-13.6
		s-2.2-1.8-2.9-1.5c-0.3,0.1-0.6,2.2-0.9,4.8c-0.1,0-0.2,0-0.2,0C63.5,43,61.1,41.5,59.3,38.7z"/>
	<path class="st2" d="M102.9,42.9c-0.9-1.7,2.4-4.5,4.2-5.1c0.2-0.8-1.3-1.5-2.5-1.2c-2.8,0.8-4.3,4.3-4.2,5.8
		c0.2,1.6,5.2,4.2,5.4,4.7c0-0.1-5.5,5.9-6,6.6c-0.5,0.6-0.5,1.1-0.2,1.6c2.5,5.1,10.3-1.1,10.1-5.2c-0.1-2.3-2-3.5-2-3.5l6.4-7.8
		c0,0,0.3-1,0.1-1.4c-0.3-0.3-7.3,8.5-7.3,8.5S103.7,44.6,102.9,42.9z M101.9,54.8c-0.8,0.5-1.1-0.1-0.8-0.7c0.3-0.6,4.2-5,5-6
		C106.5,49.7,106.5,51.8,101.9,54.8z"/>
	<path class="st2" d="M116.6,37.2c0,0.1,9.7,0,9.7,0s-1.7,27.6-1.6,29.1c0.2,1.5,5,0.6,5-2s-0.8-27.1-0.8-27.1s8.8-0.1,9.3-0.4
		c0.5-0.3,1.3-2.1,1.1-2.3c-0.2-0.2-10.7-0.6-10.7-0.6s-0.1-1.7-0.3-2.2c-0.3-0.7-1.6-0.9-1.5-0.7c-0.1,0-0.2,2.4-0.3,2.8
		c-1.1,0-11.7-0.5-12.1-0.2S116.1,37.1,116.6,37.2z"/>
	<path class="st2" d="M137.5,42c0.1,0.1-0.5,0-0.6,0.1s0.8,1.5,1.2,2.1s1.6,2.5,1.3,5c-0.5,3.5-2.3,6.6-3.6,6.8
		c-1.8,0.2-1.5-4.4-0.9-7.3s2.2-3.7,2.1-4.6c-0.1-0.9-0.6-2.3-1.4-2.6c-0.7-0.3-3.1,3.2-3.7,4.4c-0.6,1.2-2.2,4.8-0.9,8.1
		s3.1,3.6,4.9,2.9c1.8-0.7,3.5-2.4,4.2-5.6c0.7-3.3-0.4-5.9-0.4-5.9s1.9,1,2.8,0.7c0.9-0.3,1.7-0.9,1.7-1c-0.1-0.2-0.2-0.5-0.4-0.5
		s-1.2,1-2.1,0.9C140.8,45.4,138.9,44.2,137.5,42z"/>
	<path class="st2" d="M69,35.7c2.5-1.3-0.1-5.8-2.2-4.6c-1.1,1.1-1.2,3.1-0.7,3.7C66.5,35.5,68,36.2,69,35.7z"/>
	<path class="st2" d="M50.1,69.8c0.4-2.5-2.4-29.6-2.4-29.6s13.1-6.8,13.6-13.3s-14.8-3.6-14.8-3.6s-0.4-2.4-2.2-3.2
		c-0.4-0.2-1.9-0.2-1.9-0.2s0.5,52.4,2.2,53.4C46.4,74.2,49.9,71.2,50.1,69.8z M57.8,27.5c-0.5,4-10.3,10.1-10.3,10.1
		s-0.4-9.6-0.6-12.2C54.1,24.3,58.3,23.2,57.8,27.5z"/>
	<path class="st2" d="M233.8,54.4c-2.8,5.8-5.2,32.8-5.2,32.8s-16.9-1.6-15.9,16.9c0.1,1.3,0.5,2.2,1.2,3c-1.3,2.2-2.5,3.7-3.5,3.4
		c-3.4-0.9,4.6-22.2-1.7-25.1c-6.7-3.1-10,1.7-12.6,5.3c-0.2-3.8-1.7-10.7-5.3-10.7c0,0-0.5,5.6-1,12.6c-2.5,5.1-7.2,14.3-8.3,14.8
		c-1.1,0.4,0.7-16.8,0.5-20.7s-4.7-4.7-4.7-4.7s-4.3,12.8-4.5,15.7c0,0-7.2,8.1-10.1,7.8c-4.7-0.6,10.7-16.7,10.7-16.7
		s-2.8-2.3-3.8-2.1s-18.7,13-9.1,20.1c0.6,0.5,1.3,0.6,2.1,0.7l0,0c-1.7,7.1-5.3,16.3-5.3,16.3s-1.8-41.8-1.5-50.7
		c-1.2-8-4.8-17.9-7.4-17.9c-1.7,2.9-2.1,19.4-2.1,20.8c0,0.5,0,7.1,0.1,15.2c-0.4,0.3-0.7,0.6-1.2,0.9c-4.2,3.3,0.4-15.8-9.9-10.8
		c-4.2,2.1-6.9,5.4-6.9,5.4s0-2.3-0.1-4.8c-0.1-2.6-4.5-6.4-5.4-6.9c-0.5,1.6-1.2,12.2-1.2,12.1c-0.1,1.9-0.5,7.1-0.9,12.5
		c-3.7,4-7.8,7.8-10.1,7.3c-4.3-0.9-3.8-6.8-3.8-6.8s14.2-14,10.2-18.8c-3.7-4.5-14.1,1-16.3,8.7c-1.7-1.3-3.2-3-3.4-3.8
		c-0.4-1,1.9-7.1,1.6-8.5c-0.8-3.8-7.2,0.3-7.4,1.7c-0.3,1.7,1.6,5.1,1.9,6.8c0.3,2.3-9.3,24.6-11.5,27.3
		c-2.3-5.8-8.2-32.7-10.7-33.6c-1.6-0.6-9.8,1-9.8,1s2.1,7.8,4.5,16c-5.8,5.2-13.1,11.2-15.7,10.7c-3.9-0.9-3.9-5.8-3.8-6.7
		c0.1-0.1,0.2-0.3,0.3-0.4c1.8-1.9,13.6-14.1,9.9-18.6c-4-4.8-15.6,1.9-16.6,10.4c-0.4,3.7-0.1,7.7,1.1,11.1c-2.7,2.5-5.4,4.8-6.4,5
		c-1.9,0.4,4.9-22.5,4.3-35.5C38.7,62.6,29.5,58,25.4,59.8c-4.1,1.9-13.1,22.9-13.1,22.9S13.4,56,2.5,55C1.4,54.9,0,121.3,0,124.3
		c-0.1,3,11.8-1.7,12.3-8.3c0.5-6.7,0.6-22.8,0.6-22.8S27.3,51.5,28,66.1c0.8,14.7-4.2,42-1.2,47.4c2.2,4,10-1.4,15.6-7.5
		c1.6,2.8,4.1,4.7,7.3,4.7c4.9,0,11.9-5.5,17.2-11c2.3,7.5,4.7,14.7,5.9,16c2.8,2.8,10,3.8,11.1,1.6s12.5-28.1,12.5-28.1
		s1.9,2.1,4,3.6c-0.6,8.2,2.6,17.4,9.8,17.4c3.9,0,7.3-2.8,10.4-6.4c-0.3,4.8-0.6,8.9-0.6,9.9c0,2.4,8.9-2.4,9-4.6
		c0.2-2.2-0.2-13.3-0.2-15s1.2-7.9,5.4-10.2c5.3-2.9,0.3,13,5.1,13.1c2.3,0.1,5-1.9,7.2-4.1c0.2,13.3,0.4,29.8,0.9,30.7
		c1.3,2.7,10,3.1,10,3.1s5.9-16,6.3-19.5c3.3-0.6,7.2-4.3,8.9-6.5c-1,5.7,0.2,13.7,7.2,11.8c4.4-1.1,8.4-11.6,9.9-15.8
		c-0.7,10.2-1.3,21.4-0.7,22.2c1.1,1.6,7.2-2.1,7.2-3.3s-0.9-15.6,0.5-20.3c0.5-1.7,4.3-10.4,8-8.9c4,1.6-7.9,34.2,3.4,28.9
		c2.9-1.3,5.2-4.2,7-7.4c4,2.8,12.2,1.5,12.2,1.5s-1,13.2-1.3,15.6c-0.3,2.4,9.5,4.5,10.2,3.5c0.6-0.9,1.6-71.6,1.6-68.7
		C237.6,60,238.3,55.1,233.8,54.4z M111.4,86.9c1.6-2,4.1-4.2,4.1-1.9s-8.6,12.2-8.6,12.2S109.8,88.9,111.4,86.9z M50.8,87.4
		c1.6-2,4.1-4.2,4.1-1.9s-8.6,12.2-8.6,12.2S49.2,89.4,50.8,87.4z M95.1,84.2c-0.6,0.2-0.9-3.7-0.9-4.1c0-0.4,1.1-1,1.3-0.6
		C95.7,79.8,95.7,84,95.1,84.2z M227.4,107.3c0,0-7.2,0.4-8.6-4.8c-0.3-1.1-0.3-2.4,0-3.7c0.3-0.9,0.5-1.8,0.7-2.5
		c1.6-3.9,5.1-7.4,8.9-7.4L227.4,107.3z"/>
</g>
</svg>
